HIERARCHY
ROOT base
{
	OFFSET 0.0 0.0 0.0
	CHANNELS 6 Xposition Yposition Zposition Zrotation Yrotation Xrotation
	JOINT root
	{
		OFFSET 0 0 0
		CHANNELS 6 Xposition Yposition Zposition Zrotation Yrotation Xrotation
		JOINT chest
		{
			OFFSET 0 4.72302 0
			CHANNELS 3 Zrotation Yrotation Xrotation
			JOINT neck
			{
				OFFSET 0 4.47788 0
				CHANNELS 3 Zrotation Yrotation Xrotation
				End Site
				{
					OFFSET 0.0 0.0 0.0
				}
			}
			JOINT right_shoulder
			{
				OFFSET -0.481 4.87 3.6622
				CHANNELS 3 Zrotation Yrotation Xrotation
				JOINT right_elbow
				{
					OFFSET 0 -5.49576 0
					CHANNELS 3 Zrotation Yrotation Xrotation
					JOINT right_wrist
					{
						OFFSET 0 -5.17894 0
						CHANNELS 3 Zrotation Yrotation Xrotation
						End Site
						{
							OFFSET 0.0 0.0 0.0
						}
					}
				}
			}
			JOINT left_shoulder
			{
				OFFSET -0.481 4.87 -3.6622
				CHANNELS 3 Zrotation Yrotation Xrotation
				JOINT left_elbow
				{
					OFFSET 0 -5.49576 0
					CHANNELS 3 Zrotation Yrotation Xrotation
					JOINT left_wrist
					{
						OFFSET 0 -5.17894 0
						CHANNELS 3 Zrotation Yrotation Xrotation
						End Site
						{
							OFFSET 0.0 0.0 0.0
						}
					}
				}
			}
		}
		JOINT right_hip
		{
			OFFSET 0 0 1.69774
			CHANNELS 3 Zrotation Yrotation Xrotation
			JOINT right_knee
			{
				OFFSET 0 -8.43092 0
				CHANNELS 3 Zrotation Yrotation Xrotation
				JOINT right_ankle
				{
					OFFSET 0 -8.1974 0
					CHANNELS 3 Zrotation Yrotation Xrotation
					End Site
					{
						OFFSET 0.0 0.0 0.0
					}
				}
			}
		}
		JOINT left_hip
		{
			OFFSET 0 0 -1.69774
			CHANNELS 3 Zrotation Yrotation Xrotation
			JOINT left_knee
			{
				OFFSET 0 -8.43092 0
				CHANNELS 3 Zrotation Yrotation Xrotation
				JOINT left_ankle
				{
					OFFSET 0 -8.1974 0
					CHANNELS 3 Zrotation Yrotation Xrotation
					End Site
					{
						OFFSET 0.0 0.0 0.0
					}
				}
			}
		}
	}
	JOINT red_arrow
	{
		OFFSET 0 0 0
		CHANNELS 3 Zrotation Yrotation Xrotation
		End Site
		{
			OFFSET 0.0 0.0 0.0
		}
	}
	JOINT blue_arrow
	{
		OFFSET 0 0 0
		CHANNELS 3 Zrotation Yrotation Xrotation
		End Site
		{
			OFFSET 0.0 0.0 0.0
		}
	}
}
MOTION
Frames: 8
Frame Time: 0.0333333333333333
0 18.08466 0 0 0 0 0 0 0 0 -90 0 0 0 0 0 0 0 0 0 -90 0 0 0 0 0 0 0 0 90 0 0 0 0 0 0 0 0 0 0 0 0 0 0 0 0 0 0 0 0 0 0 0 0 0 0 0 0 0 0
-0.370481701940298 0 -0.00851767621934414 0 -1.96971680251268 0 0 17.9377868294716 0 -4.13600259914177 3.30479509870819E-15 2.74680543215269 -1.4769016650971 1.16563825896123 0.848752282672627 -14.7848246880662 -4.18712705954173 2.09967221061937 11.093582395692 -10.4189642902438 -13.0848744433976 14.0710323648151 0 0 0 0 0 9.79228843196701 -7.22565440413854 14.1209408825234 4.02929080838331 0 0 0 0 0 1.18440968576803 -0.958644535475045 -2.57260443536527 5.28103671682334E-05 0 0 -1.83195831388166 -8.3812651031056 1.27648735579483 2.29952695775581 -0.328163182464735 -1.4695649316052 4.03892803062878E-05 0 0 -6.25070990043752 9.41236593350509 0.792900858387487 0 0 0 0 0 0
-0.649432176351547 0 -0.013644677773118 0 -2.006497838874 0 0 17.9321527242661 0 -4.80975057332423 -0.69637904273575 2.15215481035165 -6.77578039687548 1.91751859130707 1.95924696242292 -14.749935572098 -5.90348391808734 3.87561767182208 11.0853883814292 -10.7578512878762 -25.731488683326 7.59821747519765 0 0 0 0 0 3.15875357523611 -9.25669630986281 24.9330475960838 -0.000729859063246712 0 0 0 0 0 3.36545309750567 -0.997560274526568 -1.8296762443074 0.00184929477030494 0 0 -3.96093698811851 -7.78357856782567 0.524081671916514 4.12611793675589 1.419032553687 -0.604097292014811 0.000515724305555589 0 0 -6.76375865023316 7.23616299487558 0.74274908054548 0 0 0 0 0 0
-1.07017233669758 0 -0.0860716294497252 0 -1.99538624224325 0 0 17.8283898949623 0 -7.37995114800428 0.209371466567302 1.79375198475491 -11.3974118175478 2.29381891178859 3.53798154708705 -14.1126721537312 -7.61565860058415 5.85909057499277 9.27745471885155 -13.8263135747158 -40.2379087470365 -0.0188373182204047 0 0 0 0 0 -6.9278598359436 -6.89422362238016 36.29502056294 -3.17242915302994E-06 0 0 0 0 0 7.17013426064709 -1.75665614175513 -1.71247523858727 0.000288138339898956 0 0 -2.93615136837649 -7.75031220798624 0.362174993367549 8.97539875267764 4.31427791003433 -0.683292609420928 1.90618814813418E-05 0 0 -6.81756753212274 5.11819156858155 0.860661999485097 0 0 0 0 0 0
-1.54487909376621 0 -0.159167777746916 0 -1.93583731094789 0 0 17.6572504520416 0 -9.97177910696986 1.11434171418683 1.19863364469233 -16.545904485175 3.35100706259078 5.20105019072695 -12.5650218997701 -8.81391970183032 7.87028156737937 5.42426642498051 -22.7612544490176 -52.9400312479508 -0.142898349669164 0 0 0 0 0 -15.2139900089319 -0.349410085882171 43.2712003404848 -0.0013235439396471 0 0 0 0 0 12.2394927999014 -3.02655417189871 -1.52945766123136 -2.26558591396769 0 0 0.0984857205469728 -7.27446492472702 -0.0729251537287288 14.1698744542322 7.5701124534242 -0.651065026965024 -0.0130064961162292 0 0 -6.88385814088722 2.79288304223904 -0.308161913614495 0 0 0 0 0 0
-2.12476287782192 0 -0.178631617501378 0 -1.83874657437612 0 0 17.5956001996994 0 -13.4097622087688 1.79446348028679 0.290146615258637 -20.3937156079999 3.98170394831849 5.94601688402307 -11.4706949432217 -8.89005155961461 10.0989633808052 2.03806619508786 -32.5914051135157 -58.5887931808125 -1.86586347797191E-05 0 0 0 0 0 -20.196613119537 7.83868734222291 43.7214151515848 -0.00481108536651048 0 0 0 0 0 19.9054519803257 -4.51201077534015 -1.16948594728957 -6.98880024980561 0 0 0.568636892307081 -6.51002842359624 -0.0370471739278753 22.4177671145904 11.0174452883248 -0.055284749437634 -2.51882947815449 0 0 -9.52286413655384 0.856702701847831 1.33477873300016 0 0 0 0 0 0
-2.84556025862694 0 -0.146683657541871 0 -1.74070798333408 0 0 17.4564617156982 0 -17.9506800530707 1.77211870133359 -0.685432436001412 -23.3178514889639 4.10840665561261 5.63049751017022 -8.24154592369468 -7.93102640932131 10.249445033673 -0.561672647991588 -42.6072338169715 -60.760381873869 -2.20926213506447E-06 0 0 0 0 0 -23.6249122699969 18.6501660837117 41.9367398774116 -2.1310555014464E-06 0 0 0 0 0 31.9747884758122 -5.84535962937336 -0.928918168261196 -17.0295142896542 0 0 1.0836577323187 -5.32528774746431 -0.205610952757304 34.7461702298159 13.4232602699803 1.63860083565052 -9.40003930749359 0 0 -12.1807315307758 -0.94194396930323 2.46817033489027 0 0 0 0 0 0
-3.51809820532799 0 -0.0604427892714739 0 -1.64119694847816 0 0 17.199681019783 0 -21.8178706526836 1.75536603262261 -2.12623962927234 -25.9986851130789 3.98050190933806 5.50042495201595 -5.3458426700958 -6.34179916468694 9.33447966885492 -6.94878646364378 -50.9101976280274 -55.6445650539163 -4.69089781305198E-06 0 0 0 0 0 -27.2060682475433 27.9471727591876 37.3583148780681 -0.000226089959753104 0 0 0 0 0 43.1484001975801 -5.43813929278475 -0.43173598890882 -27.1585584702834 0 0 0.734578163387808 -3.46383334940323 0.0527264188300967 46.9989371544518 14.4808466792209 4.16443464995213 -17.6547924949594 0 0 -14.0401102383951 -1.24633274984051 3.80628667658205 0 0 0 0 0 0
